:SAMPLES-PER-SECOND 24
:FULLY-SPECIFIED
:DEGREES
239
root  0.134823 36.3545 29.1012 176.077 -50.6435 174.755
RightUpLeg  -12.4577 -17.719 -20.8043
RightLeg  45.3349 6.96323 7.20761
RightFoot  -15.3128 0.244048 9.96347
RightToes  -1.74623e-010 0 -2.59999e-017
Spine  5.11852 -0.403456 -1.78821
Spine1  13.9019 -0.222009 -3.29351
HEad  -12.8592 -27.4905 10.7628
LeftShoulder1  1.763 -3.0006 -20.702
LeftArm  13.5348 1.08523 -39.6888
LeftForeArm  124.604 -74.2391 -137.971
LeftHand  0.387969 9.03259 13.1337
RightShoulder  2.61517 4.79304 25.4708
RightArm  -6.51325 2.23787 28.5131
RightForeArm  9.91353 51.3179 13.3591
RightHand  -0.647669 0.110742 -13.7242
LeftUpLeg  -0.838696 5.54286 13.9142
LeftLeg  45.9112 -1.03092 -0.711255
LeftFoot  -16.6192 -0.787209 -18.8928
LeftToes  -6.27559e-011 -2.10356e-011 8.24929e-012
240
root  0.377132 35.5999 29.0374 175.826 -48.1125 175.305
RightUpLeg  -16.3358 -17.1115 -19.7685
RightLeg  50.3536 7.20156 8.89685
RightFoot  -17.1869 0.295281 8.02358
RightToes  -1.74623e-010 0 -2.59999e-017
Spine  4.51734 0.345078 -0.0732884
Spine1  15.0983 1.08062 -5.29583
HEad  -15.2362 -27.0682 10.8533
LeftShoulder1  1.76615 -2.65645 -22.3609
LeftArm  12.6325 -5.3489 -39.8009
LeftForeArm  122.063 -75.188 -134.6
LeftHand  0.460864 9.77368 12.9417
RightShoulder  2.81291 5.0833 26.7592
RightArm  -9.69401 9.06819 26.4987
RightForeArm  15.1634 45.7938 10.4705
RightHand  -0.404576 -1.87669 -13.0186
LeftUpLeg  0.165234 5.68103 14.7674
LeftLeg  46.3557 -1.25773 -0.966528
LeftFoot  -22.1778 -1.87596 -20.9585
LeftToes  -6.27559e-011 -2.10356e-011 8.24929e-012
241
root  0.449746 36.1633 28.893 175.59 -49.8536 175.609
RightUpLeg  -13.8472 -18.6266 -19.6605
RightLeg  47.1139 7.64508 8.42478
RightFoot  -15.5873 0.201985 8.29254
RightToes  -1.74623e-010 0 -2.59999e-017
Spine  3.51591 -0.0112849 -0.957454
Spine1  16.3673 0.337122 -3.87055
HEad  -15.5841 -27.9188 11.2269
LeftShoulder1  2.00609 -3.08724 -24.2195
LeftArm  13.6147 -6.75293 -42.8702
LeftForeArm  120.647 -76.0804 -131.165
LeftHand  0.359607 9.13525 12.0031
RightShoulder  3.0144 5.30944 28.2557
RightArm  -14.8633 6.73595 28.0312
RightForeArm  23.0732 44.7203 9.48912
RightHand  0.0220454 -5.66212 -15.7919
LeftUpLeg  1.06474 4.97299 15.1073
LeftLeg  42.8183 -1.87281 -1.43679
LeftFoot  -20.0208 -1.51052 -21.2563
LeftToes  -6.27559e-011 -2.10356e-011 8.24929e-012
242
root  0.357301 37.8691 28.7714 176.355 -53.5809 175.214
RightUpLeg  -7.52967 -19.0731 -19.736
RightLeg  36.0679 6.86708 5.13766
RightFoot  -9.26159 -0.281107 11.1602
RightToes  -1.74623e-010 0 -2.59999e-017
Spine  2.45953 -0.819169 -3.16258
Spine1  15.8707 -1.21649 -0.816079
HEad  -12.6846 -30.2423 10.9863
LeftShoulder1  2.20643 -3.47987 -25.4378
LeftArm  17.9291 -4.36688 -47.2695
LeftForeArm  115.083 -76.6155 -127.69
LeftHand  0.243038 7.9375 12.1817
RightShoulder  3.18876 5.44366 29.7275
RightArm  -16.8544 -1.55373 30.6626
RightForeArm  22.9218 45.3694 9.73662
RightHand  0.271242 -7.08616 -19.6725
LeftUpLeg  1.90397 4.31739 14.3936
LeftLeg  35.459 -1.7437 -0.952857
LeftFoot  -9.46985 0.360616 -19.4912
LeftToes  -6.27559e-011 -2.10356e-011 8.24929e-012
243
root  0.196408 39.7324 28.8256 178.411 -55.4687 174.113
RightUpLeg  -3.90269 -16.4665 -19.2666
RightLeg  25.5597 3.31827 1.53264
RightFoot  2.83968 -1.73511 13.9709
RightToes  -1.74623e-010 0 -2.59999e-017
Spine  1.75764 -1.11109 -4.1949
Spine1  13.5172 -1.64324 0.599592
HEad  -8.60761 -32.5865 9.94901
LeftShoulder1  2.19267 -3.40572 -25.5779
LeftArm  23.3093 -1.18091 -50.3782
LeftForeArm  110.042 -77.0926 -124.207
LeftHand  0.100031 6.6887 10.8996
RightShoulder  3.35879 5.58782 31.0538
RightArm  -15.2129 -10.1551 31.9163
RightForeArm  15.9552 43.4467 9.53512
RightHand  -0.112679 -4.59093 -16.7827
LeftUpLeg  2.97275 4.86041 12.8549
LeftLeg  26.6478 -1.41201 -0.43042
LeftFoot  4.45912 2.18779 -15.9826
LeftToes  -6.27559e-011 -2.10356e-011 8.24929e-012
244
root  0.0472302 41.0049 29.0355 179.789 -56.4221 173.545
RightUpLeg  -2.78111 -14.8655 -18.9194
RightLeg  19.5536 0.282976 -0.0956248
RightFoot  13.2155 -2.82306 13.3956
RightToes  -1.74623e-010 0 -2.59999e-017
Spine  1.66409 -1.32547 -3.6956
Spine1  11.4408 -1.67837 0.690212
HEad  -7.11248 -33.6247 9.45084
LeftShoulder1  2.13117 -3.33586 -24.9781
LeftArm  26.7221 0.775134 -51.4152
LeftForeArm  115.369 -77.1213 -125.468
LeftHand  -0.0317667 5.1865 6.92913
RightShoulder  3.41252 5.66599 31.329
RightArm  -13.7114 -17.1215 32.9643
RightForeArm  9.17164 40.7623 9.06822
RightHand  -0.191184 -2.18151 -6.66435
LeftUpLeg  3.84639 6.52634 11.6656
LeftLeg  20.4415 0.04349 0.342307
LeftFoot  11.4316 2.58765 -13.146
LeftToes  -6.27559e-011 -2.10356e-011 8.24929e-012
